<mxfile host="app.diagrams.net" modified="2023-05-07T13:36:51.092Z" agent="Mozilla/5.0 (Windows NT 10.0; Win64; x64) AppleWebKit/537.36 (KHTML, like Gecko) Chrome/111.0.0.0 Safari/537.36 OPR/97.0.0.0" etag="at1yxKGbZm3sDghdKaI4" version="21.2.9" type="github">
  <diagram name="Seite-1" id="_UjLAd8lYpjm0K8IKWNJ">
    <mxGraphModel dx="1393" dy="766" grid="1" gridSize="10" guides="1" tooltips="1" connect="1" arrows="1" fold="1" page="1" pageScale="1" pageWidth="827" pageHeight="1169" math="0" shadow="0">
      <root>
        <mxCell id="0" />
        <mxCell id="1" parent="0" />
        <mxCell id="b3gsPvKcp0SOzQLdhuyX-16" value="" style="edgeStyle=orthogonalEdgeStyle;rounded=0;orthogonalLoop=1;jettySize=auto;html=1;" edge="1" parent="1" source="b3gsPvKcp0SOzQLdhuyX-1" target="b3gsPvKcp0SOzQLdhuyX-3">
          <mxGeometry relative="1" as="geometry" />
        </mxCell>
        <mxCell id="b3gsPvKcp0SOzQLdhuyX-1" value="" style="ellipse;html=1;shape=startState;fillColor=#000000;strokeColor=#ff0000;" vertex="1" parent="1">
          <mxGeometry x="190" y="60" width="30" height="30" as="geometry" />
        </mxCell>
        <mxCell id="b3gsPvKcp0SOzQLdhuyX-6" value="" style="edgeStyle=orthogonalEdgeStyle;rounded=0;orthogonalLoop=1;jettySize=auto;html=1;" edge="1" parent="1" source="b3gsPvKcp0SOzQLdhuyX-3" target="b3gsPvKcp0SOzQLdhuyX-5">
          <mxGeometry relative="1" as="geometry" />
        </mxCell>
        <mxCell id="b3gsPvKcp0SOzQLdhuyX-3" value="Select File(s)" style="rounded=1;whiteSpace=wrap;html=1;arcSize=40;fontColor=#000000;fillColor=#ffffc0;strokeColor=#ff0000;" vertex="1" parent="1">
          <mxGeometry x="145" y="150" width="120" height="40" as="geometry" />
        </mxCell>
        <mxCell id="b3gsPvKcp0SOzQLdhuyX-8" value="" style="edgeStyle=orthogonalEdgeStyle;rounded=0;orthogonalLoop=1;jettySize=auto;html=1;" edge="1" parent="1" source="b3gsPvKcp0SOzQLdhuyX-5" target="b3gsPvKcp0SOzQLdhuyX-7">
          <mxGeometry relative="1" as="geometry" />
        </mxCell>
        <mxCell id="b3gsPvKcp0SOzQLdhuyX-5" value="(Optional) Enter User Information" style="rounded=1;whiteSpace=wrap;html=1;arcSize=40;fontColor=#000000;fillColor=#ffffc0;strokeColor=#ff0000;" vertex="1" parent="1">
          <mxGeometry x="145" y="270" width="120" height="40" as="geometry" />
        </mxCell>
        <mxCell id="b3gsPvKcp0SOzQLdhuyX-13" value="" style="edgeStyle=orthogonalEdgeStyle;rounded=0;orthogonalLoop=1;jettySize=auto;html=1;" edge="1" parent="1" source="b3gsPvKcp0SOzQLdhuyX-7" target="b3gsPvKcp0SOzQLdhuyX-12">
          <mxGeometry relative="1" as="geometry" />
        </mxCell>
        <mxCell id="b3gsPvKcp0SOzQLdhuyX-7" value="Choose Fitting match for each song" style="rounded=1;whiteSpace=wrap;html=1;arcSize=40;fontColor=#000000;fillColor=#ffffc0;strokeColor=#ff0000;" vertex="1" parent="1">
          <mxGeometry x="145" y="390" width="120" height="40" as="geometry" />
        </mxCell>
        <mxCell id="b3gsPvKcp0SOzQLdhuyX-15" value="" style="edgeStyle=orthogonalEdgeStyle;rounded=0;orthogonalLoop=1;jettySize=auto;html=1;" edge="1" parent="1" source="b3gsPvKcp0SOzQLdhuyX-12" target="b3gsPvKcp0SOzQLdhuyX-14">
          <mxGeometry relative="1" as="geometry" />
        </mxCell>
        <mxCell id="b3gsPvKcp0SOzQLdhuyX-12" value="Display Overview of findings" style="rounded=1;whiteSpace=wrap;html=1;arcSize=40;fontColor=#000000;fillColor=#ffffc0;strokeColor=#ff0000;" vertex="1" parent="1">
          <mxGeometry x="145" y="510" width="120" height="40" as="geometry" />
        </mxCell>
        <mxCell id="b3gsPvKcp0SOzQLdhuyX-14" value="" style="ellipse;html=1;shape=endState;fillColor=#000000;strokeColor=#ff0000;" vertex="1" parent="1">
          <mxGeometry x="190" y="620" width="30" height="30" as="geometry" />
        </mxCell>
      </root>
    </mxGraphModel>
  </diagram>
</mxfile>
